<svg version="1.0" xmlns="http://www.w3.org/2000/svg" xmlns:xlink="http://www.w3.org/1999/xlink" viewBox="0 0 225 225" >
<path fill="#666666" fill-rule="evenodd" clip-rule="evenodd" d="M211.785,72.579c10.636-24.282,11.375-44.757-0.816-56.938
	c-13.377-13.549-46.196-9.483-80.271,6.598c-1.434-0.065-2.867-0.105-4.307-0.105c-24.257,0-47.647,8.708-65.435,24.505
	C46.015,59.92,35.562,77.636,30.729,97.5c3.4-4.134,22.449-26.552,43.963-38.618c0.428-0.243,5.873-3.076,6.315-3.184
	c-0.371,0.332-11.004,10.17-12.911,12.096c-47.713,48.183-75.549,121.896-54.13,143.863c14.093,14.096,39.913,10.574,69.807-5.49
	c12.797,5.92,27.202,8.994,42.618,8.994c20.223,0,39.345-5.611,55.287-16.237c16.701-11.132,29.316-27.528,36.542-47.468h-52.636
	c-6.771,12.908-22.593,21.869-38.705,21.869c-22.885,0-42.219-18.711-42.25-40.871l-0.084-0.859l-0.112-1.046h1.059h136.554
	c0.062-0.679,0.129-1.401,0.199-2.161c0.321-3.383,0.681-7.223,0.681-10.197C222.925,101.799,219.062,86.262,211.785,72.579z
	 M28.956,207.625c-10.598-10.602-7.677-31.654,5.636-56.969c6.191,17.18,16.134,31.844,29.17,42.816
	c4.189,3.525,8.676,6.637,13.423,9.325C55.443,214.048,37.908,216.57,28.956,207.625z M79.882,204.244
	c0.191,0.104,0.387,0.209,0.579,0.314C80.269,204.453,80.073,204.348,79.882,204.244z M167.761,104.864H85.516h-1.01l0.053-1.004
	c1.088-21.124,21.078-38.971,43.658-38.971c21.655,0,39.443,17.123,40.488,38.975l0.049,1H167.761z M193.255,48.429
	c-9.337-8.726-20.434-15.505-32.423-19.99c21.755-9.891,39.588-11.224,49.062-1.753c7.876,7.873,6.863,22.405-1.163,40.594
	c0.009,0.01,0.015,0.02,0.021,0.029C204.489,60.417,199.301,54.083,193.255,48.429z M210.386,70.057
	c-0.044-0.091-0.093-0.175-0.15-0.264C210.293,69.882,210.342,69.966,210.386,70.057z"/>
</svg>
